# xmcd
#
# Track frame offsets:
#	150
#	20776
#	37949
#	56016
#	74298
#	98164
#	114626
#	137550
#	156855
#	174158
#	193934
#	211241
#	230704
#	248266
#
# Disc length: 3599 seconds
#
# Revision: 2
# Processed by: cddbd v1.5.2PL0 Copyright (c) Steve Scherf et al.
# Submitted via: audiograbber 1.83.01
#
DISCID=bc0e0d0e
DTITLE=Ilse DeLange - Great Escape
DYEAR=2006
DGENRE=Country
TTITLE0=Reach For The Light
TTITLE1=Lonely One
TTITLE2=Great Escape
TTITLE3=Was It Love
TTITLE4=I Always Will
TTITLE5=Miss Politician
TTITLE6=Don't You Let Go Of Me
TTITLE7=Carry Hope
TTITLE8=Waterfall
TTITLE9=Far Away
TTITLE10=I Love You
TTITLE11=Valley
TTITLE12=When
TTITLE13=feat. Zucchero - Blue (Album Version)
EXTD=ID3G:  17 YEAR: 2006
EXTT0=
EXTT1=
EXTT2=
EXTT3=
EXTT4=
EXTT5=
EXTT6=
EXTT7=
EXTT8=
EXTT9=
EXTT10=
EXTT11=
EXTT12=
EXTT13=Bonus Track
PLAYORDER=
